<svg xmlns="http://www.w3.org/2000/svg" width="842" height="535" viewBox="299 181 842 535" fill="none" preserveAspectRatio="none">
  <path d="M448.885 184.861L448.762 182.992H446.89H403C346.667 182.992 301 228.659 301 284.992V611C301 667.333 346.667 713 403 713H1037C1093.33 713 1139 667.333 1139 611V284.992C1139 228.659 1093.33 182.992 1037 182.992H989.063H987.19L987.067 184.861C984.534 223.359 952.502 253.802 913.362 253.802H522.59C483.45 253.802 451.419 223.359 448.885 184.861Z" fill="url(#paint0_linear)" stroke="url(#paint1_linear)" stroke-width="4"/>
  <mask id="mask0" mask-type="alpha" maskUnits="userSpaceOnUse" x="303" y="185" width="834" height="527">
    <path d="M446.89 185.985H403C347.772 185.985 303 230.756 303 285.985V611.992C303 667.221 347.772 711.992 403 711.992H1037C1092.23 711.992 1137 667.221 1137 611.992V285.985C1137 230.756 1092.23 185.985 1037 185.985L989.063 185.985C986.461 225.527 953.563 256.794 913.362 256.794H522.59C482.39 256.794 449.492 225.527 446.89 185.985Z" fill="url(#paint2_linear)"/>
  </mask>
  <defs>
    <linearGradient id="paint0_linear" x1="455.833" y1="965.474" x2="943.573" y2="156.79" gradientUnits="userSpaceOnUse">
      <stop/>
      <stop offset="1" stop-color="#363636"/>
    </linearGradient>
    <linearGradient id="paint1_linear" x1="1005" y1="75" x2="390.5" y2="787.5" gradientUnits="userSpaceOnUse">
      <stop stop-color="#FFDACB"/>
      <stop offset="1" stop-color="#FFA55D"/>
    </linearGradient>
    <linearGradient id="paint2_linear" x1="455.833" y1="1019.81" x2="992.297" y2="187.25" gradientUnits="userSpaceOnUse">
      <stop/>
      <stop offset="1" stop-color="#363636"/>
    </linearGradient>
  </defs>
</svg>
